<svg xmlns="http://www.w3.org/2000/svg" viewBox="0 0 48 48"><title>weathericons</title><path d="M17.45,22.38H15.2V21.25h2.25Zm13.22,1.23a3.36,3.36,0,0,1,1,.46,3.31,3.31,0,0,1,.8.74,3.41,3.41,0,0,1,.71,2.07,3.4,3.4,0,0,1-1,2.38,3.49,3.49,0,0,1-1.08.73,3.4,3.4,0,0,1-1.31.26h-.95a2.61,2.61,0,0,0,.24-.54,2.94,2.94,0,0,0,.12-.59h.59A2.19,2.19,0,0,0,30.7,29a2.29,2.29,0,0,0,1.2-1.2,2.29,2.29,0,0,0,.17-.87,2.19,2.19,0,0,0-.18-.9,2,2,0,0,0-.5-.71,2.23,2.23,0,0,0-.73-.47,2.26,2.26,0,0,0-.9-.18,4,4,0,0,0-1.31-2.41,3.81,3.81,0,0,0-2.57-1,3.63,3.63,0,0,0-1.28.22,4.19,4.19,0,0,0-1.12.61,3.65,3.65,0,0,0-.86.93,3.92,3.92,0,0,0-.53,1.18,3,3,0,0,0-.86-.51,2.65,2.65,0,0,0-1-.18,2.74,2.74,0,0,0-1.1.22,2.91,2.91,0,0,0-.89.6,2.73,2.73,0,0,0-.6.9,2.69,2.69,0,0,0-.22,1.09,2.74,2.74,0,0,0,.22,1.1,2.59,2.59,0,0,0,.6.89,2.77,2.77,0,0,0,.89.61,2.91,2.91,0,0,0,1.1.21h.84l-.56,1.13h-.28a3.7,3.7,0,0,1-1.53-.31,3.9,3.9,0,0,1-1.25-.85,3.91,3.91,0,0,1-1-3.92,4.29,4.29,0,0,1,.47-1,3.94,3.94,0,0,1,.75-.83,3.88,3.88,0,0,1,1-.61,3.82,3.82,0,0,1-.11-.9,4,4,0,0,1,.31-1.53A4,4,0,0,1,21,18.19a3.7,3.7,0,0,1,1.53-.31,4,4,0,0,1,1.1.15,4.12,4.12,0,0,1,1.83,1.17,4.32,4.32,0,0,1,.61.92,4.89,4.89,0,0,1,1.52.3,5.34,5.34,0,0,1,1.33.72A5,5,0,0,1,30,22.23,4.73,4.73,0,0,1,30.67,23.61Zm-12.14-5L16.94,17l.8-.8,1.59,1.59Zm3,4a5,5,0,0,1,3.28-2.35,2.76,2.76,0,0,0-1-.91A2.68,2.68,0,0,0,22.51,19a2.74,2.74,0,0,0-1.1.22,2.93,2.93,0,0,0-.89.61,2.79,2.79,0,0,0-.82,2,2.44,2.44,0,0,0,.07.59,3.93,3.93,0,0,1,.49,0A4.15,4.15,0,0,1,21.55,22.59Zm2.8,8a1.12,1.12,0,0,1,.13.53,1.42,1.42,0,0,1-.11.55,1.57,1.57,0,0,1-.31.45,1.23,1.23,0,0,1-.44.3,1.46,1.46,0,0,1-.55.11,1.41,1.41,0,0,1-.54-.11,1.37,1.37,0,0,1-.45-.3,1.57,1.57,0,0,1-.31-.45,1.42,1.42,0,0,1-.1-.55,1.24,1.24,0,0,1,.12-.53L23.07,28ZM23.07,16.75H22V14.5h1.12Zm4.66,11.56a1.24,1.24,0,0,1,.12.53,1.26,1.26,0,0,1-.11.55,1.38,1.38,0,0,1-.75.75,1.41,1.41,0,0,1-1.09,0,1.38,1.38,0,0,1-.75-.75,1.42,1.42,0,0,1-.11-.55,1.24,1.24,0,0,1,.12-.53l1.29-2.56Zm-1.24-9.68-.8-.8,1.59-1.59.8.8Z"/></svg>