<svg xmlns="http://www.w3.org/2000/svg" viewBox="0 0 48 48"><title>weathericons</title><path d="M30.67,23.61a3.33,3.33,0,0,1,1,.47,3.24,3.24,0,0,1,.79.73,3.19,3.19,0,0,1,.52,1,3.4,3.4,0,0,1,.19,1.11,3.4,3.4,0,0,1-1,2.38,3.49,3.49,0,0,1-1.08.73,3.4,3.4,0,0,1-1.31.26H20.26a3.7,3.7,0,0,1-1.53-.31,3.87,3.87,0,0,1-1.26-.84,4.1,4.1,0,0,1-.84-1.25,3.94,3.94,0,0,1-.1-2.8,3.5,3.5,0,0,1-1-1.18,3.23,3.23,0,0,1-.35-1.49,3.19,3.19,0,0,1,.26-1.31A3.49,3.49,0,0,1,16.19,20a3.29,3.29,0,0,1,2.38-1h.19L19,19a3.76,3.76,0,0,1,.61-.95,4.06,4.06,0,0,1,.84-.71,3.48,3.48,0,0,1,1-.45,3.77,3.77,0,0,1,1.11-.16,3.87,3.87,0,0,1,1.4.26,4.09,4.09,0,0,1,1.19.71A3.83,3.83,0,0,1,26,18.8a3.7,3.7,0,0,1,.44,1.35,4.88,4.88,0,0,1,1.41.36,5.09,5.09,0,0,1,1.23.74,5.43,5.43,0,0,1,1,1.05A4.83,4.83,0,0,1,30.67,23.61Zm-12.1-3.49a2.12,2.12,0,0,0-.87.18,2.39,2.39,0,0,0-.72.48,2.33,2.33,0,0,0-.48.72,2.13,2.13,0,0,0-.18.88,2.17,2.17,0,0,0,.19.9,2.47,2.47,0,0,0,.54.75,3.88,3.88,0,0,1,3.21-1.65,3.67,3.67,0,0,1,.66.05,3.42,3.42,0,0,1,.63.16,4.64,4.64,0,0,1,.69-.91,5.59,5.59,0,0,1,.88-.73,5.85,5.85,0,0,1,1-.52,5.54,5.54,0,0,1,1.12-.27,2.87,2.87,0,0,0-.35-.91,2.59,2.59,0,0,0-.62-.73,2.71,2.71,0,0,0-.83-.47,2.63,2.63,0,0,0-1-.17,2.73,2.73,0,0,0-1,.19,2.8,2.8,0,0,0-.87.55,3,3,0,0,0-.61.82,2.86,2.86,0,0,0-.28,1,2.7,2.7,0,0,0-.55-.24A2,2,0,0,0,18.57,20.12Zm11.25,9A2.19,2.19,0,0,0,30.7,29a2.29,2.29,0,0,0,1.2-1.2,2.29,2.29,0,0,0,.17-.87,2.19,2.19,0,0,0-.18-.9,2,2,0,0,0-.5-.72,2.23,2.23,0,0,0-.73-.47,2.44,2.44,0,0,0-.9-.17,4,4,0,0,0-1.31-2.41,3.81,3.81,0,0,0-2.57-1,3.63,3.63,0,0,0-1.28.22,4.19,4.19,0,0,0-1.12.61,3.65,3.65,0,0,0-.86.93,3.92,3.92,0,0,0-.53,1.18,3,3,0,0,0-.86-.51,2.65,2.65,0,0,0-1-.18,2.74,2.74,0,0,0-1.1.22,2.91,2.91,0,0,0-.89.6,2.73,2.73,0,0,0-.6.9,2.69,2.69,0,0,0-.22,1.09,2.74,2.74,0,0,0,.22,1.1,2.59,2.59,0,0,0,.6.89,2.77,2.77,0,0,0,.89.61,2.91,2.91,0,0,0,1.1.21Z"/></svg>