<svg xmlns="http://www.w3.org/2000/svg" viewBox="0 0 48 48"><title>weathericons</title><path d="M29.79,22.38a3.32,3.32,0,0,1,1.33.26,3.33,3.33,0,0,1,1.81,1.78,3.29,3.29,0,0,1,.27,1.33,3.17,3.17,0,0,1-.27,1.31,3.3,3.3,0,0,1-.72,1.08,3.46,3.46,0,0,1-1.08.72,3.23,3.23,0,0,1-1.31.26H19.7a4.36,4.36,0,0,1-1.76-.35,4.5,4.5,0,0,1-1.43-1,4.39,4.39,0,0,1-1-1.43,4.58,4.58,0,0,1,0-3.51,4.39,4.39,0,0,1,1-1.43,4.5,4.5,0,0,1,1.43-1,4.36,4.36,0,0,1,1.76-.36,4.45,4.45,0,0,1,.81.08,5.54,5.54,0,0,1,.82-1,4.75,4.75,0,0,1,1-.73A5.29,5.29,0,0,1,23.49,18a5.38,5.38,0,0,1,1.27-.15,5,5,0,0,1,3.37,1.28,5,5,0,0,1,1.11,1.43A5.19,5.19,0,0,1,29.79,22.38Zm0,5.62a2.2,2.2,0,0,0,.88-.18,2,2,0,0,0,.71-.48,2.14,2.14,0,0,0,.49-.72,2.31,2.31,0,0,0,0-1.74,2.14,2.14,0,0,0-.49-.72,2,2,0,0,0-.71-.48,2.2,2.2,0,0,0-.88-.18H28.7v-.56a4,4,0,0,0-.31-1.54,4.13,4.13,0,0,0-.85-1.25,3.72,3.72,0,0,0-1.25-.84A3.77,3.77,0,0,0,24.76,19a3.94,3.94,0,0,0-1.19.18,4.29,4.29,0,0,0-1.05.52,4.07,4.07,0,0,0-.85.81,4.13,4.13,0,0,0-.59,1,3.13,3.13,0,0,0-1.38-.31,3.41,3.41,0,0,0-1.32.26,3.57,3.57,0,0,0-1.07.73,3.49,3.49,0,0,0-.73,1.08,3.35,3.35,0,0,0-.26,1.3,3.29,3.29,0,0,0,1,2.39,3.57,3.57,0,0,0,1.07.73A3.41,3.41,0,0,0,19.7,28Z"/></svg>