<svg xmlns="http://www.w3.org/2000/svg" viewBox="0 0 48 48"><title>weathericons</title><path d="M30.67,23.61a3.36,3.36,0,0,1,1,.46,3.31,3.31,0,0,1,.8.74,3.41,3.41,0,0,1,.71,2.07,3.27,3.27,0,0,1-.17,1,3.36,3.36,0,0,1-.45.91,3.77,3.77,0,0,1-.71.73A3.54,3.54,0,0,1,31,30V28.82a2.38,2.38,0,0,0,.82-.82,2.28,2.28,0,0,0,.12-2,2.08,2.08,0,0,0-.5-.71,2.4,2.4,0,0,0-1.62-.65,3.93,3.93,0,0,0-.45-1.34,4.09,4.09,0,0,0-.86-1.07,4,4,0,0,0-1.18-.71,3.82,3.82,0,0,0-1.4-.25,3.63,3.63,0,0,0-1.28.22,4.19,4.19,0,0,0-1.12.61,3.65,3.65,0,0,0-.86.93,3.92,3.92,0,0,0-.53,1.18,3,3,0,0,0-.86-.51,2.65,2.65,0,0,0-1-.18,2.74,2.74,0,0,0-1.1.22,2.91,2.91,0,0,0-.89.6,2.73,2.73,0,0,0-.6.9,2.69,2.69,0,0,0-.22,1.09,2.74,2.74,0,0,0,.22,1.1,2.59,2.59,0,0,0,.6.89,2.77,2.77,0,0,0,.89.61,2.91,2.91,0,0,0,1.1.21l-.54,1.08a4,4,0,0,1-1.35-.44,3.83,3.83,0,0,1-1.08-.87,4,4,0,0,1-.71-1.18,3.87,3.87,0,0,1-.26-1.4,4,4,0,0,1,.31-1.53,4,4,0,0,1,.85-1.25,4.12,4.12,0,0,1,1.24-.84,3.78,3.78,0,0,1,1.54-.31,4.15,4.15,0,0,1,1.29.21,5.17,5.17,0,0,1,1.84-1.8,4.59,4.59,0,0,1,1.19-.49,4.74,4.74,0,0,1,1.3-.18,4.83,4.83,0,0,1,1.57.26,5.1,5.1,0,0,1,1.39.72,5,5,0,0,1,1.83,2.51Zm-6.88,7a1.23,1.23,0,0,1,0,1.08,1.38,1.38,0,0,1-.75.75,1.41,1.41,0,0,1-.54.11,1.46,1.46,0,0,1-.55-.11,1.23,1.23,0,0,1-.44-.3,1.57,1.57,0,0,1-.31-.45,1.42,1.42,0,0,1-.11-.55,1.12,1.12,0,0,1,.13-.53L22.51,28Zm4.69-2.84a.5.5,0,0,1,.39.17.53.53,0,0,1,.16.39.52.52,0,0,1-.28.48l-.62.36.62.37A.52.52,0,0,1,29,30a.54.54,0,0,1-.17.4.53.53,0,0,1-.39.16.52.52,0,0,1-.24-.05L28,30.37l-.23-.14-.2-.13c0,.11,0,.24,0,.39a1.39,1.39,0,0,1,0,.41.72.72,0,0,1-.16.34.49.49,0,0,1-.38.14.5.5,0,0,1-.39-.14.72.72,0,0,1-.16-.34,1.39,1.39,0,0,1,0-.41c0-.15,0-.28,0-.39l-.21.13-.22.14-.24.11a.48.48,0,0,1-.23.05.57.57,0,0,1-.4-.16A.54.54,0,0,1,25,30a.52.52,0,0,1,.28-.48l.61-.37-.61-.36a.52.52,0,0,1-.28-.48.53.53,0,0,1,.16-.39.5.5,0,0,1,.39-.17.52.52,0,0,1,.24.05,1.34,1.34,0,0,1,.24.12l.23.14.2.12c0-.11,0-.24,0-.39a1.39,1.39,0,0,1,0-.41.72.72,0,0,1,.16-.34.5.5,0,0,1,.39-.13.49.49,0,0,1,.38.13.72.72,0,0,1,.16.34,1.39,1.39,0,0,1,0,.41c0,.15,0,.28,0,.39l.2-.12.23-.14a1.34,1.34,0,0,1,.24-.12A.52.52,0,0,1,28.48,27.72Z"/></svg>