<svg xmlns="http://www.w3.org/2000/svg" viewBox="0 0 48 48"><title>weathericons</title><path d="M30.67,23.61a3.36,3.36,0,0,1,1,.46,3.31,3.31,0,0,1,.8.74,3.41,3.41,0,0,1,.71,2.07A3.25,3.25,0,0,1,33,28a3.34,3.34,0,0,1-2.39,2.15l-.53-1.05a2.51,2.51,0,0,0,.79-.24,2.32,2.32,0,0,0,.63-.49,2.35,2.35,0,0,0,.42-.68,2.15,2.15,0,0,0,.15-.8,2.19,2.19,0,0,0-.18-.9,2,2,0,0,0-.5-.71,2.23,2.23,0,0,0-.73-.47,2.26,2.26,0,0,0-.9-.18,4,4,0,0,0-1.31-2.41,3.81,3.81,0,0,0-2.57-1,3.63,3.63,0,0,0-1.28.22,4.19,4.19,0,0,0-1.12.61,3.65,3.65,0,0,0-.86.93,3.92,3.92,0,0,0-.53,1.18,3,3,0,0,0-.86-.51,2.65,2.65,0,0,0-1-.18,2.74,2.74,0,0,0-1.1.22,2.91,2.91,0,0,0-.89.6,2.73,2.73,0,0,0-.6.9,2.69,2.69,0,0,0-.22,1.09,2.74,2.74,0,0,0,.15.9A2.83,2.83,0,0,0,18,28a3.09,3.09,0,0,0,.64.61,3,3,0,0,0,.83.39L19,30a3.49,3.49,0,0,1-1.08-.57,3.76,3.76,0,0,1-.84-.85,4.11,4.11,0,0,1-.55-1.06,4,4,0,0,1-.19-1.21,4,4,0,0,1,.31-1.53,4,4,0,0,1,2.1-2.09,3.7,3.7,0,0,1,1.53-.31,4.15,4.15,0,0,1,1.29.21,5.17,5.17,0,0,1,1.84-1.8,4.59,4.59,0,0,1,1.19-.49,4.74,4.74,0,0,1,1.3-.18,4.83,4.83,0,0,1,1.57.26,5.1,5.1,0,0,1,1.39.72,5,5,0,0,1,1.83,2.51Zm-8,7a1.24,1.24,0,0,1,.12.53,1.42,1.42,0,0,1-.11.55,1.38,1.38,0,0,1-.75.75,1.41,1.41,0,0,1-1.09,0,1.38,1.38,0,0,1-.75-.75,1.26,1.26,0,0,1-.11-.55,1.24,1.24,0,0,1,.12-.53L21.38,28ZM26,28.31a1.25,1.25,0,0,1,.13.53,1.42,1.42,0,0,1-.11.55,1.57,1.57,0,0,1-.31.45,1.37,1.37,0,0,1-.45.3,1.41,1.41,0,0,1-.54.11,1.46,1.46,0,0,1-.55-.11,1.23,1.23,0,0,1-.44-.3,1.57,1.57,0,0,1-.31-.45,1.42,1.42,0,0,1-.11-.55,1.12,1.12,0,0,1,.13-.53l1.28-2.56Zm3.38,2.25a1.24,1.24,0,0,1,.12.53,1.42,1.42,0,0,1-.11.55,1.38,1.38,0,0,1-.75.75,1.41,1.41,0,0,1-1.09,0,1.38,1.38,0,0,1-.75-.75,1.26,1.26,0,0,1-.11-.55,1.24,1.24,0,0,1,.12-.53L28.13,28Z"/></svg>