<svg xmlns="http://www.w3.org/2000/svg" viewBox="0 0 48 48"><title>weathericons</title><path d="M18.57,21.5H15.2V20.38h3.37Zm1.08-3.74-2.38-2.39.79-.8L20.45,17Zm0,6.36.8.8L18.06,27.3l-.79-.79Zm4-7.12a3.78,3.78,0,0,1,1.54.31,3.91,3.91,0,0,1,2.09,2.09,4,4,0,0,1,0,3.07,3.72,3.72,0,0,1-.84,1.25,4.13,4.13,0,0,1-1.25.85,4,4,0,0,1-3.07,0,4,4,0,0,1-1.25-.85,3.83,3.83,0,0,1-1.15-2.78A4,4,0,0,1,20,19.4a4.13,4.13,0,0,1,.85-1.25,3.82,3.82,0,0,1,1.25-.84A3.77,3.77,0,0,1,23.63,17Zm0,6.75a2.66,2.66,0,0,0,1.09-.22,3.08,3.08,0,0,0,.9-.6,3,3,0,0,0,.6-.9,2.7,2.7,0,0,0,.23-1.09,2.66,2.66,0,0,0-.23-1.09,2.85,2.85,0,0,0-1.5-1.5,2.66,2.66,0,0,0-1.09-.23,2.7,2.7,0,0,0-1.09.23,2.85,2.85,0,0,0-1.5,1.5,2.66,2.66,0,0,0-.22,1.09A2.69,2.69,0,0,0,21,22a3,3,0,0,0,.6.9,3.08,3.08,0,0,0,.9.6A2.69,2.69,0,0,0,23.63,23.75Zm.57-7.87H23.07V12.5H24.2ZM23.07,26H24.2v3.38H23.07Zm4.55-8.24-.8-.8,2.39-2.39.79.8Zm0,6.36L30,26.51l-.79.79-2.39-2.38Zm4.45-3.74V21.5H28.7V20.38Z"/></svg>