<svg xmlns="http://www.w3.org/2000/svg" viewBox="0 0 48 48"><title>weathericons</title><path d="M17.45,20.38H15.2V19.25h2.25Zm13.22,1.23a3.36,3.36,0,0,1,1,.46,3.52,3.52,0,0,1,.8.74,3.41,3.41,0,0,1,.71,2.07,3.4,3.4,0,0,1-1,2.38,3.49,3.49,0,0,1-1.08.73,3.4,3.4,0,0,1-1.31.26H28.7V27.12h1.12A2.19,2.19,0,0,0,30.7,27a2.29,2.29,0,0,0,1.2-1.2,2.29,2.29,0,0,0,.17-.87,2.19,2.19,0,0,0-.18-.9,2,2,0,0,0-.5-.71,2.4,2.4,0,0,0-1.62-.65,3.81,3.81,0,0,0-.45-1.33,4,4,0,0,0-.86-1.08,4,4,0,0,0-1.18-.71,3.82,3.82,0,0,0-1.4-.25,3.63,3.63,0,0,0-1.28.22,4.19,4.19,0,0,0-1.12.61,3.65,3.65,0,0,0-.86.93,3.92,3.92,0,0,0-.53,1.18,3,3,0,0,0-.86-.51,2.65,2.65,0,0,0-1-.18,2.74,2.74,0,0,0-1.1.22,2.91,2.91,0,0,0-.89.6,2.73,2.73,0,0,0-.6.9,2.69,2.69,0,0,0-.22,1.09,2.74,2.74,0,0,0,.22,1.1,2.59,2.59,0,0,0,.6.89,2.77,2.77,0,0,0,.89.61,2.91,2.91,0,0,0,1.1.21h.56v1.13h-.56a3.78,3.78,0,0,1-1.54-.31,3.93,3.93,0,0,1-2.23-4.76,3.8,3.8,0,0,1,1.22-1.86,3.88,3.88,0,0,1,1-.61,3.82,3.82,0,0,1-.11-.9,4,4,0,0,1,.31-1.53A3.9,3.9,0,0,1,19.73,17,3.94,3.94,0,0,1,21,16.19a3.78,3.78,0,0,1,1.54-.31,4,4,0,0,1,1.1.15,4,4,0,0,1,1.83,1.17,4.32,4.32,0,0,1,.61.92,4.89,4.89,0,0,1,1.52.3,5.4,5.4,0,0,1,1.34.72A5.22,5.22,0,0,1,30,20.23,4.73,4.73,0,0,1,30.67,21.61Zm-12.14-5L16.94,15l.8-.8,1.59,1.59Zm3,4a5,5,0,0,1,3.28-2.35,2.76,2.76,0,0,0-1-.91A2.68,2.68,0,0,0,22.51,17a2.74,2.74,0,0,0-1.1.22,2.93,2.93,0,0,0-.89.61,2.79,2.79,0,0,0-.82,2,2.44,2.44,0,0,0,.07.59,3.93,3.93,0,0,1,.49,0A4.15,4.15,0,0,1,21.55,20.59Zm1.52-5.84H22V12.5h1.12Zm0,10.27a1,1,0,0,1,.38.07,1,1,0,0,1,.53.53.94.94,0,0,1,0,.76,1,1,0,0,1-.53.53,1,1,0,0,1-.38.07,1,1,0,0,1-.38-.07,1,1,0,0,1-.31-.22.85.85,0,0,1-.21-.31.94.94,0,0,1,0-.76.85.85,0,0,1,.21-.31,1,1,0,0,1,.31-.22A1,1,0,0,1,23.07,25Zm0,3.37a1,1,0,0,1,.38.08,1,1,0,0,1,.32.21A1.41,1.41,0,0,1,24,29a1,1,0,0,1,.08.39,1,1,0,0,1-.08.38,1.41,1.41,0,0,1-.21.31,1,1,0,0,1-.32.21,1,1,0,0,1-.38.08,1,1,0,0,1-.38-.08.85.85,0,0,1-.31-.21,1,1,0,0,1-.21-.31.84.84,0,0,1-.08-.38.85.85,0,0,1,.08-.39,1,1,0,0,1,.21-.31.85.85,0,0,1,.31-.21A1,1,0,0,1,23.07,28.39Zm3.38-4.5a1,1,0,0,1,.38.08,1,1,0,0,1,.52.52,1,1,0,0,1,.08.39,1,1,0,0,1-.08.38,1,1,0,0,1-.52.52,1,1,0,0,1-.38.08,1,1,0,0,1-.39-.08,1,1,0,0,1-.52-.52,1,1,0,0,1-.08-.38,1,1,0,0,1,.08-.39,1,1,0,0,1,.52-.52A1,1,0,0,1,26.45,23.89Zm0,3.38a1,1,0,0,1,.38.07,1.16,1.16,0,0,1,.31.22.85.85,0,0,1,.21.31.94.94,0,0,1,0,.76.85.85,0,0,1-.21.31,1.16,1.16,0,0,1-.31.22,1,1,0,0,1-.38.07,1,1,0,0,1-.39-.07,1.16,1.16,0,0,1-.31-.22.85.85,0,0,1-.21-.31.94.94,0,0,1,0-.76.85.85,0,0,1,.21-.31,1.16,1.16,0,0,1,.31-.22A1,1,0,0,1,26.45,27.27Zm0-10.64-.8-.8,1.59-1.59.8.8Z"/></svg>