<svg xmlns="http://www.w3.org/2000/svg" viewBox="0 0 48 48"><title>weathericons</title><path d="M30.67,23.61a3.39,3.39,0,0,1,1,.47,3.29,3.29,0,0,1,.8.73,3.19,3.19,0,0,1,.52,1,3.4,3.4,0,0,1,.19,1.11,3.19,3.19,0,0,1-.27,1.3,3.4,3.4,0,0,1-1.8,1.8,3.23,3.23,0,0,1-1.31.27H20.26a3.78,3.78,0,0,1-1.54-.31,3.93,3.93,0,0,1-1.25-.84,4.1,4.1,0,0,1-.84-1.25,3.78,3.78,0,0,1-.31-1.54A3.88,3.88,0,0,1,16.54,25a3.8,3.8,0,0,1,.65-1.16A4.6,4.6,0,0,1,16,22.67a4.41,4.41,0,0,1-.67-1.54,4.34,4.34,0,0,0,1,.12,4.45,4.45,0,0,0,1.75-.35,4.78,4.78,0,0,0,1.44-1,4.6,4.6,0,0,0,1-1.44,4.45,4.45,0,0,0,.35-1.75,4.34,4.34,0,0,0-.12-1,4.25,4.25,0,0,1,1.4.59,4.38,4.38,0,0,1,1.11,1,4.74,4.74,0,0,1,.73,1.3,4.36,4.36,0,0,1,.26,1.49c0,.05,0,.1,0,.15s0,.11,0,.15h0c.28-.09.55-.16.82-.22a4.63,4.63,0,0,1,.85-.08,4.94,4.94,0,0,1,1.58.26,4.75,4.75,0,0,1,1.38.71,5,5,0,0,1,1.1,1.1A4.9,4.9,0,0,1,30.67,23.61Zm-8.79-6.05a5.21,5.21,0,0,1-.54,1.73,5.58,5.58,0,0,1-2.48,2.48,5.37,5.37,0,0,1-1.73.54,3,3,0,0,0,.91.74,4.1,4.1,0,0,1,1.06-.5,4.16,4.16,0,0,1,1.82-.12,3.42,3.42,0,0,1,.63.16,4.06,4.06,0,0,1,.61-.82,10,10,0,0,1,.76-.69,3.11,3.11,0,0,0,.15-1,3.29,3.29,0,0,0-.31-1.41A3.08,3.08,0,0,0,21.88,17.56Zm7.94,11.56A2.19,2.19,0,0,0,30.7,29a2.29,2.29,0,0,0,1.2-1.2,2.29,2.29,0,0,0,.17-.87,2.19,2.19,0,0,0-.18-.9,2,2,0,0,0-.5-.72,2.23,2.23,0,0,0-.73-.47,2.44,2.44,0,0,0-.9-.17,4,4,0,0,0-1.31-2.41,4,4,0,0,0-1.18-.71,3.81,3.81,0,0,0-1.39-.25,3.63,3.63,0,0,0-1.28.22,3.9,3.9,0,0,0-1.12.6,4,4,0,0,0-.86.93,3.87,3.87,0,0,0-.53,1.19,3,3,0,0,0-.86-.51,2.65,2.65,0,0,0-1-.18,2.74,2.74,0,0,0-1.1.22,2.91,2.91,0,0,0-.89.6,2.73,2.73,0,0,0-.6.9,2.69,2.69,0,0,0-.22,1.09,2.74,2.74,0,0,0,.22,1.1,2.59,2.59,0,0,0,.6.89,2.77,2.77,0,0,0,.89.61,2.91,2.91,0,0,0,1.1.21Z"/></svg>