<svg xmlns="http://www.w3.org/2000/svg" viewBox="0 0 48 48"><title>weathericons</title><path d="M30.67,21.61a3.36,3.36,0,0,1,1,.46,3.52,3.52,0,0,1,.8.74,3.47,3.47,0,0,1,.71,2.07,2.76,2.76,0,0,1-.06.57A5.62,5.62,0,0,1,33,26H31.76a2.14,2.14,0,0,0,.23-.54,2.32,2.32,0,0,0,.08-.58,2.23,2.23,0,0,0-.18-.9,2.08,2.08,0,0,0-.5-.71,2.4,2.4,0,0,0-1.62-.65,3.81,3.81,0,0,0-.45-1.33,4,4,0,0,0-.86-1.08,4,4,0,0,0-1.18-.71,3.82,3.82,0,0,0-1.4-.25,3.63,3.63,0,0,0-1.28.22,4.19,4.19,0,0,0-1.12.61,3.65,3.65,0,0,0-.86.93,3.92,3.92,0,0,0-.53,1.18,3,3,0,0,0-.86-.51,2.65,2.65,0,0,0-1-.18,2.74,2.74,0,0,0-1.1.22,2.91,2.91,0,0,0-.89.6,2.73,2.73,0,0,0-.6.9,2.77,2.77,0,0,0-.07,2A2.82,2.82,0,0,0,18,26H16.72a4,4,0,0,1-.3-.82,3.63,3.63,0,0,1-.1-.87,4,4,0,0,1,.31-1.53,4,4,0,0,1,2.1-2.09,3.7,3.7,0,0,1,1.53-.31,4.15,4.15,0,0,1,1.29.21,5.17,5.17,0,0,1,1.84-1.8,4.59,4.59,0,0,1,1.19-.49,4.74,4.74,0,0,1,1.3-.18,4.83,4.83,0,0,1,1.57.26,5.1,5.1,0,0,1,1.39.72,4.78,4.78,0,0,1,1.1,1.1A4.72,4.72,0,0,1,30.67,21.61Zm.84,5.51a.54.54,0,0,1,.39.17.52.52,0,0,1,.17.4.5.5,0,0,1-.17.39.54.54,0,0,1-.39.17H18a.56.56,0,0,1-.4-.17.53.53,0,0,1-.16-.39.55.55,0,0,1,.16-.4.56.56,0,0,1,.4-.17Zm-3.38,2.26a.54.54,0,0,1,.4.16.56.56,0,0,1,.17.4.54.54,0,0,1-.17.39.54.54,0,0,1-.4.17H20.26a.56.56,0,0,1-.4-.17.53.53,0,0,1-.16-.39.55.55,0,0,1,.56-.56ZM21.38,26a.58.58,0,0,1-.56-.56A.56.56,0,0,1,21,25a.53.53,0,0,1,.39-.16h7.88a.53.53,0,0,1,.39.16.52.52,0,0,1,.17.4.5.5,0,0,1-.17.39.54.54,0,0,1-.39.17Z"/></svg>