<svg xmlns="http://www.w3.org/2000/svg" viewBox="0 0 48 48"><title>weathericons</title><path d="M30.67,23.61a3.36,3.36,0,0,1,1,.46,3.31,3.31,0,0,1,.8.74,3.41,3.41,0,0,1,.71,2.07,3.4,3.4,0,0,1-1,2.38,3.49,3.49,0,0,1-1.08.73,3.4,3.4,0,0,1-1.31.26H26.45l1.12-1.13h2.25A2.19,2.19,0,0,0,30.7,29a2.29,2.29,0,0,0,1.2-1.2,2.29,2.29,0,0,0,.17-.87,2.23,2.23,0,0,0-.18-.9,2.08,2.08,0,0,0-.5-.71,2.4,2.4,0,0,0-1.62-.65,3.93,3.93,0,0,0-.45-1.34,4.09,4.09,0,0,0-.86-1.07,4,4,0,0,0-1.18-.71,3.82,3.82,0,0,0-1.4-.25,3.63,3.63,0,0,0-1.28.22,4.19,4.19,0,0,0-1.12.61,3.65,3.65,0,0,0-.86.93,3.92,3.92,0,0,0-.53,1.18,3,3,0,0,0-.86-.51,2.65,2.65,0,0,0-1-.18,2.74,2.74,0,0,0-1.1.22,2.91,2.91,0,0,0-.89.6,2.73,2.73,0,0,0-.6.9,2.69,2.69,0,0,0-.22,1.09,2.74,2.74,0,0,0,.22,1.1,2.59,2.59,0,0,0,.6.89,2.77,2.77,0,0,0,.89.61,2.91,2.91,0,0,0,1.1.21h2.25L22,30.25H20.26a3.78,3.78,0,0,1-1.54-.31,3.93,3.93,0,0,1-2.4-3.63,3.79,3.79,0,0,1,.21-1.26,3.5,3.5,0,0,1-1-1.18,3.23,3.23,0,0,1-.35-1.49,3.19,3.19,0,0,1,.26-1.31A3.49,3.49,0,0,1,16.19,20a3.29,3.29,0,0,1,2.38-1h.19L19,19a3.76,3.76,0,0,1,.61-.95,4.28,4.28,0,0,1,.83-.71,3.67,3.67,0,0,1,1-.45,3.77,3.77,0,0,1,1.11-.16,3.87,3.87,0,0,1,1.4.26,4.09,4.09,0,0,1,1.19.71A3.83,3.83,0,0,1,26,18.8a3.7,3.7,0,0,1,.44,1.35,4.89,4.89,0,0,1,1.41.37,5.19,5.19,0,0,1,1.22.73,5.41,5.41,0,0,1,1,1.05A4.86,4.86,0,0,1,30.67,23.61Zm-9.12-1a4.79,4.79,0,0,1,.7-.91,4.68,4.68,0,0,1,.88-.73,5.44,5.44,0,0,1,1-.52,5.23,5.23,0,0,1,1.12-.27,2.87,2.87,0,0,0-.35-.91,2.76,2.76,0,0,0-.62-.73,2.83,2.83,0,0,0-.83-.47,2.63,2.63,0,0,0-1-.17,2.73,2.73,0,0,0-1,.19,2.64,2.64,0,0,0-.86.55,2.82,2.82,0,0,0-.62.82,2.86,2.86,0,0,0-.28,1,2.7,2.7,0,0,0-.55-.24,2,2,0,0,0-.6-.09,2.12,2.12,0,0,0-.87.18,2.39,2.39,0,0,0-.72.48,2.33,2.33,0,0,0-.48.72,2.13,2.13,0,0,0-.18.88,2.17,2.17,0,0,0,.19.9,2.15,2.15,0,0,0,.55.75,3.88,3.88,0,0,1,3.2-1.65A4.15,4.15,0,0,1,21.55,22.59Zm1,9.91L24.76,28h-2l1.69-3.38h2l-1.13,2.26h2.81Z"/></svg>