<svg xmlns="http://www.w3.org/2000/svg" viewBox="0 0 48 48"><title>weathericons</title><path d="M30.67,21.61a3.36,3.36,0,0,1,1,.46,3.52,3.52,0,0,1,.8.74,3.41,3.41,0,0,1,.71,2.07A3.28,3.28,0,0,1,33,26.05a3.72,3.72,0,0,1-.59,1,3.43,3.43,0,0,1-.9.75,3.27,3.27,0,0,1-1.12.41V27.05a2,2,0,0,0,.68-.3,2.15,2.15,0,0,0,.54-.5,2.09,2.09,0,0,0,.35-.64,2.24,2.24,0,0,0,.12-.73,2.19,2.19,0,0,0-.18-.9,2,2,0,0,0-.5-.71,2.23,2.23,0,0,0-.73-.47,2.26,2.26,0,0,0-.9-.18,4,4,0,0,0-1.31-2.41,4,4,0,0,0-1.18-.71,3.81,3.81,0,0,0-1.39-.25,3.63,3.63,0,0,0-1.28.22,4.19,4.19,0,0,0-1.12.61,3.65,3.65,0,0,0-.86.93,3.92,3.92,0,0,0-.53,1.18,3,3,0,0,0-.86-.51,2.65,2.65,0,0,0-1-.18,2.74,2.74,0,0,0-1.1.22,2.91,2.91,0,0,0-.89.6,2.73,2.73,0,0,0-.6.9,2.69,2.69,0,0,0-.22,1.09,3,3,0,0,0,.11.81,2.59,2.59,0,0,0,.35.73,3,3,0,0,0,.53.6,2.61,2.61,0,0,0,.69.44v1.19A3.76,3.76,0,0,1,18,27.53a4.32,4.32,0,0,1-.89-.87,4.1,4.1,0,0,1-.57-1.1,3.73,3.73,0,0,1-.21-1.25,3.83,3.83,0,0,1,.23-1.3,3.77,3.77,0,0,1,.64-1.16A4.81,4.81,0,0,1,16,20.67a4.33,4.33,0,0,1-.67-1.54,4.34,4.34,0,0,0,1,.12,4.45,4.45,0,0,0,1.75-.35,4.78,4.78,0,0,0,1.44-1,4.6,4.6,0,0,0,1-1.44,4.45,4.45,0,0,0,.35-1.75,4.34,4.34,0,0,0-.12-1,4.25,4.25,0,0,1,1.4.59,4.38,4.38,0,0,1,1.11,1,4.74,4.74,0,0,1,.73,1.3,4.36,4.36,0,0,1,.26,1.49c0,.05,0,.1,0,.15s0,.11,0,.15A4.71,4.71,0,0,1,25,18.2a4.91,4.91,0,0,1,.86-.08,4.83,4.83,0,0,1,1.57.26,5.1,5.1,0,0,1,1.39.72,4.78,4.78,0,0,1,1.1,1.1A4.72,4.72,0,0,1,30.67,21.61Zm-9.12-1a5,5,0,0,1,1.37-1.5,3.3,3.3,0,0,0-.16-2.38,3.08,3.08,0,0,0-.88-1.15,5.21,5.21,0,0,1-.54,1.73,5.58,5.58,0,0,1-2.48,2.48,5.37,5.37,0,0,1-1.73.54,3.18,3.18,0,0,0,.91.75,4.15,4.15,0,0,1,1.06-.51,3.75,3.75,0,0,1,1.16-.17A4.15,4.15,0,0,1,21.55,20.59Zm2.7,8a.52.52,0,0,1,.28.48.54.54,0,0,1-.17.4.54.54,0,0,1-.39.17.68.68,0,0,1-.23-.05,1.34,1.34,0,0,1-.24-.12l-.23-.14-.2-.12c0,.11,0,.24,0,.38a1.44,1.44,0,0,1,0,.42.73.73,0,0,1-.16.33.46.46,0,0,1-.38.14.47.47,0,0,1-.39-.14A.73.73,0,0,1,22,30a1.44,1.44,0,0,1,0-.42c0-.14,0-.27,0-.38l-.2.12-.23.14a1.34,1.34,0,0,1-.24.12.68.68,0,0,1-.23.05.56.56,0,0,1-.4-.17.54.54,0,0,1-.17-.4.46.46,0,0,1,.08-.28.58.58,0,0,1,.21-.2l.61-.36-.61-.36a.58.58,0,0,1-.21-.2.46.46,0,0,1-.08-.28.51.51,0,0,1,.17-.4.54.54,0,0,1,.39-.17.69.69,0,0,1,.24.05,1.34,1.34,0,0,1,.24.12l.23.14.2.12c0-.11,0-.24,0-.38a1.44,1.44,0,0,1,0-.42.73.73,0,0,1,.16-.33.47.47,0,0,1,.39-.14.46.46,0,0,1,.38.14.73.73,0,0,1,.16.33,1.44,1.44,0,0,1,0,.42c0,.14,0,.27,0,.38l.2-.12L23.5,27a1.34,1.34,0,0,1,.24-.12.69.69,0,0,1,.24-.05.56.56,0,0,1,.55.57.52.52,0,0,1-.28.48l-.62.36Zm4.23-2.89a.5.5,0,0,1,.39.17.53.53,0,0,1,.16.39.52.52,0,0,1-.28.48l-.62.36.62.37A.52.52,0,0,1,29,28a.54.54,0,0,1-.17.4.53.53,0,0,1-.39.16.5.5,0,0,1-.23-.05,1.34,1.34,0,0,1-.24-.12l-.23-.14-.2-.12c0,.11,0,.24,0,.39a1.39,1.39,0,0,1,0,.41.72.72,0,0,1-.16.34.49.49,0,0,1-.38.14.5.5,0,0,1-.39-.14.72.72,0,0,1-.16-.34,1.39,1.39,0,0,1,0-.41c0-.15,0-.28,0-.39l-.2.12-.23.14a1.34,1.34,0,0,1-.24.12.5.5,0,0,1-.23.05.52.52,0,0,1-.4-.17A.54.54,0,0,1,25,28a.44.44,0,0,1,.08-.28.58.58,0,0,1,.21-.2l.61-.37-.61-.36a.58.58,0,0,1-.21-.2.44.44,0,0,1-.08-.28.58.58,0,0,1,.56-.56.52.52,0,0,1,.24.05,1.34,1.34,0,0,1,.24.12l.23.14.2.12c0-.11,0-.24,0-.39a1.39,1.39,0,0,1,0-.41.72.72,0,0,1,.16-.34.5.5,0,0,1,.39-.13.49.49,0,0,1,.38.13.72.72,0,0,1,.16.34,1.39,1.39,0,0,1,0,.41c0,.15,0,.28,0,.39l.2-.12.23-.14a1.34,1.34,0,0,1,.24-.12A.52.52,0,0,1,28.48,25.72Z"/></svg>