<svg xmlns="http://www.w3.org/2000/svg" viewBox="0 0 48 48"><title>weathericons</title><path d="M28.7,18.12a3.4,3.4,0,0,1-1,2.39,3.49,3.49,0,0,1-1.08.73,3.4,3.4,0,0,1-1.31.26H15.2V20.38H25.32a2.2,2.2,0,0,0,.88-.18A2.29,2.29,0,0,0,27.4,19a2.34,2.34,0,0,0,0-1.75,2.29,2.29,0,0,0-1.2-1.2,2.19,2.19,0,0,0-.88-.17,2.11,2.11,0,0,0-.87.17,2.39,2.39,0,0,0-.72.48,2.33,2.33,0,0,0-.48.72,2.12,2.12,0,0,0-.18.87H22a3.18,3.18,0,0,1,.26-1.3,3.49,3.49,0,0,1,.73-1.08,3.29,3.29,0,0,1,2.38-1,3.4,3.4,0,0,1,1.31.26,3.49,3.49,0,0,1,1.08.73,3.3,3.3,0,0,1,.72,1.08A3.19,3.19,0,0,1,28.7,18.12ZM31,20.38a2.11,2.11,0,0,1,.87.17,2.21,2.21,0,0,1,1.2,1.2,2.22,2.22,0,0,1,0,1.75,2.21,2.21,0,0,1-1.2,1.2,2.12,2.12,0,0,1-.87.18H29.52a2.13,2.13,0,0,1,.3,1.12,2.38,2.38,0,0,1-.17.88,2.2,2.2,0,0,1-.49.71,2,2,0,0,1-.71.48,2.2,2.2,0,0,1-.88.18,2.12,2.12,0,0,1-.87-.18,2.07,2.07,0,0,1-.72-.48,2.17,2.17,0,0,1-.48-.71,2.2,2.2,0,0,1-.18-.88h1.13a1.27,1.27,0,0,0,.08.44,1.09,1.09,0,0,0,1,.68A1,1,0,0,0,28,27a1.11,1.11,0,0,0,.36-.25,1.21,1.21,0,0,0,.24-.35,1.12,1.12,0,0,0,0-.88,1.21,1.21,0,0,0-.24-.35A1.11,1.11,0,0,0,28,25a1,1,0,0,0-.44-.08H15.2V23.75H31a1.12,1.12,0,0,0,.44-.09,1.21,1.21,0,0,0,.35-.24,1.13,1.13,0,0,0,.24-.36,1,1,0,0,0,.09-.44,1,1,0,0,0-.09-.43,1.13,1.13,0,0,0-.24-.36,1.21,1.21,0,0,0-.35-.24A1.12,1.12,0,0,0,31,21.5a1,1,0,0,0-.44.09,1.1,1.1,0,0,0-.6.6,1,1,0,0,0-.09.43H28.7a2.11,2.11,0,0,1,.17-.87,2.29,2.29,0,0,1,1.2-1.2A2.16,2.16,0,0,1,31,20.38Z"/></svg>